<?xml version="1.0" encoding="utf-8"?>
<!-- Generator: Adobe Illustrator 23.0.0, SVG Export Plug-In . SVG Version: 6.00 Build 0)  -->
<svg version="1.1" xmlns="http://www.w3.org/2000/svg" xmlns:xlink="http://www.w3.org/1999/xlink" x="0px" y="0px"
	 viewBox="0 0 1000 1000" style="enable-background:new 0 0 1000 1000;" xml:space="preserve">
<style type="text/css">
	.st0{fill:#5AA9E6;}
	.st1{fill:#367BDA;}
	.st2{fill:#2467B5;}
	.st3{fill:#020C1E;}
	.st4{display:none;}
	.st5{display:inline;fill:#020C1E;stroke:#FFFFFF;stroke-width:5;stroke-linecap:round;stroke-miterlimit:10;}
	.st6{fill:#FFFFFF;}
	.st7{fill:#666666;}
	.st8{fill:#303030;}
	.st9{fill:#F1F1F1;}
	.st10{fill:#B6BDC2;}
	.st11{display:inline;fill:#020C1E;stroke:#FFFFFF;stroke-miterlimit:10;}
	.st12{fill:#C6C4C4;}
</style>
<g id="M1">
	<g id="Capa_3">
	</g>
</g>
<g id="M2">
	<g id="Capa_29" class="st4">
	</g>
	<g id="Capa_5">
	</g>
</g>
<g id="M3">
	<g id="Capa_7">
	</g>
</g>
<g id="M4">
	<g id="Capa_9">
	</g>
</g>
<g id="M5">
	<g id="Capa_12">
		<g>
			<path class="st0" d="M382.5,401c-17.4-9.1-35.6-16.4-54.4-22.2c-40.6-12.6-82.2-17.9-124.8-15.6c-0.4,0-0.7,0-1.1,0.1
				c0,17.7,0,35.4,0,53.1c12.8-0.8,25.6-0.9,38.5,0c33.3,2.2,65.3,9.7,96.1,22.4c9.2,3.8,18.1,8.1,26.9,12.7l26-46.9
				C387.3,403.3,384.9,402.2,382.5,401z"/>
			<path class="st1" d="M464.1,457.6c-4-3.7-8.1-7.4-12.3-10.9c-9.7-8.2-19.8-15.9-30.4-22.9c-5.9-4-29.8-18.2-31.7-19.2l-26,46.9
				c3.2,1.7,6.4,3.4,9.6,5.2c1.1,0.6,2.2,1.2,3.3,1.8c1.8,1.1,3.5,2.3,5.3,3.4c15.6,9.8,30.1,20.8,43.4,33.2
				c3.9,3.6,7.7,7.3,11.4,11.1c21.6,22.4,38.8,47.1,51.7,74c16-8.8,31.9-17.6,47.9-26.4C518.2,517.8,494.2,485.7,464.1,457.6z"/>
			<path class="st0" d="M339.3,495.1c-3.8-2.1-7.6-4.1-11.5-5.9c0,0,0,0,0,0c-1.6-0.8-3.3-1.5-4.9-2.2c-0.2-0.1-0.4-0.2-0.5-0.2
				c-1.5-0.6-3-1.3-4.5-1.9c-0.5-0.2-1.1-0.4-1.6-0.7c-1.1-0.5-2.3-0.9-3.4-1.4c-1.7-0.7-3.5-1.3-5.2-2
				c-34.5-12.6-69.7-17.6-105.5-14.8c0,17.8,0,35.5,0,53.3c30-3,59.1,1.1,87.6,11.6c1.3,0.5,2.6,1,3.9,1.5c0.3,0.1,0.6,0.3,0.9,0.4
				c1,0.4,2,0.8,2.9,1.3c0.3,0.1,0.5,0.3,0.8,0.4c1,0.5,2,0.9,3,1.4c0.1,0,0.2,0.1,0.3,0.1c3.9,1.9,7.8,3.9,11.7,5.9L339.3,495.1z"
				/>
			<path class="st1" d="M419.7,565c-9.2-12.6-19.6-24.2-31-34.7c-8.3-7.6-17.3-14.7-26.9-21.1c-0.7-1.4-2-2.1-3.5-2.5
				c-2.9-2.2-6-4.2-9.3-5.7c-0.7-0.5-1.4-0.9-2.1-1.3c-2.5-1.6-5.1-3.1-7.7-4.5L313.2,542c2,1,4,2,6.1,3c0.3,0.1,0.6,0.3,0.9,0.4
				c10.4,6.9,20.5,14.2,29.8,22.5c4.3,3.8,8.4,7.9,12.3,12.2c14,15.5,25.1,32.6,33,51.2c4.3-2.3,8.7-4.6,13-7
				c11.7-6.4,23.4-12.8,35-19.3C436.9,591,429,577.7,419.7,565z"/>
			<path class="st1" d="M340.4,632.4c-7-11.5-15.5-21.6-25.4-30.3c-1.6-1.4-3.3-2.8-5-4.1c-1.6-1.3-3.2-2.5-4.9-3.7
				c-0.1-0.1-0.2-0.1-0.3-0.2c-3.5-2.5-7.2-4.9-11.1-7.1c-0.1,0-0.1-0.1-0.2-0.1c-1.3-0.8-2.6-1.6-3.9-2.4l-25.8,46.5
				c0.6,0.3,1.1,0.6,1.7,1c0.2,0.1,0.4,0.3,0.7,0.4c0.7,0.5,1.5,0.9,2.2,1.4c0.2,0.2,0.5,0.3,0.7,0.5c2.6,1.8,5,3.7,7.3,5.7
				c12.7,10.8,21.4,24.4,25.8,40.8c0.2,0.6,0.4,1.2,0.6,1.6c9.9-5.5,19.7-11.2,29.5-16.9c6.2-3.6,12.5-7.1,18.9-10.6
				C348.3,647,344.7,639.5,340.4,632.4z"/>
			<path class="st0" d="M202.1,567.7c0,17.9,0,35.8,0,53.7c4.2-0.8,8.4-1.5,12.6-1.8c17.6-1.2,34,2.7,49.1,11.2l25.8-46.5
				c-20.4-11.9-42.7-17.4-66.6-18C216,566.3,209,566.8,202.1,567.7z"/>
			<path class="st2" d="M262.2,68c-30.7-14.6-59.3,2.2-60,35.3c-0.4,22.3-0.1,195.6-0.1,259.9c0.4,0,0.7-0.1,1.1-0.1
				c42.6-2.3,84.2,3,124.8,15.6c18.8,5.9,58.7,23.9,61.3,25.5l114.4-204C451.5,171.5,279.1,76.1,262.2,68z"/>
			<path class="st3" d="M789.9,361.7c-0.9-0.9-1.8-1.8-2.8-2.7c-5.4-5-283.4-158.7-283.4-158.7L389.4,404.5l1.7,1
				c0,0,24.3,14.3,30.2,18.2c10.6,7.1,20.7,14.7,30.4,22.9c4.2,3.6,8.3,7.2,12.3,10.9c30.2,28.1,54.1,60.2,72,96.4
				c53.8-29.6,234.1-129,243-134.5c9.7-6,19.2-14.4,22.1-25.6C804.3,381.9,798.3,370.3,789.9,361.7z"/>
			<path class="st1" d="M245.9,663.7l-27.2,49.1c4.1,2.2,8.9,3.5,14,3.5c15.9,0,28.8-12.5,28.8-27.9
				C261.4,677.7,255.1,668.4,245.9,663.7z"/>
			<path class="st0" d="M232.6,660.6c-15.9,0-28.8,12.5-28.8,27.9c0,10.5,6,19.6,14.9,24.4l27.2-49.1
				C241.9,661.7,237.4,660.6,232.6,660.6z"/>
		</g>
	</g>
	<g id="Capa_13">
		<g>
			<path class="st3" d="M202,797.2h51.1c30.3,0,41.5,12.3,41.5,35.2v17.8c0,22.7-12.2,35-42.7,35h-25.2v42.2H202V797.2z
				 M251.7,818.9h-25v44.6h25c14,0,18.1-5.1,18.1-15.8v-13.3C269.8,823.6,265.3,818.9,251.7,818.9z"/>
			<path class="st3" d="M314.3,927.3V802.1l24-4.9v130.2H314.3z"/>
			<path class="st3" d="M436.8,927.4l-18.9,0.1l-2.5-8c-8.7,5.4-18.9,8-28.5,8c-17.5,0-25-11.4-25-27.1c0-18.5,8.5-25.6,27.9-25.6
				h23v-9.5c0-10.1-2.9-13.6-18.3-13.6c-8.7,0-18.1,1.1-26.5,2.8l-2.9-17.4c9-2.6,22.2-4.3,32.8-4.3c30.1,0,38.9,10.1,38.9,32.8
				V927.4z M412.8,891.3h-17.7c-7.9,0-10,2.1-10,9c0,6.3,2.2,9.1,9.6,9.1c7.1,0,13.6-2.2,18.1-4.7V891.3z"/>
			<path class="st3" d="M511.9,927.3l-12.8,38h-22.8l12-38l0,0l0,0c-5,0-9.5-3.2-11-8l-27.7-86h24.6l21.8,71.4l22-71.4h24.6
				L511.9,927.3z"/>
			<path class="st3" d="M584.1,818.9h-36.6v-21.7h97.9v21.7h-36.6v108.5h-24.8V818.9z"/>
			<path class="st3" d="M690.8,927.3h-24.8V797.2h24.8V927.3z"/>
			<path class="st3" d="M718.4,833.8c0-23.2,14.2-36.7,47.4-36.7c12.4,0,25.2,1.5,36.2,4.2l-2.8,20.7c-10.8-1.9-23.4-3.2-32.6-3.2
				c-17.4,0-23,5.7-23,19.2v48.6c0,13.5,5.6,19.2,23,19.2c9.2,0,21.8-1.3,32.6-3.2l2.8,20.7c-11,2.7-23.8,4.2-36.2,4.2
				c-33.2,0-47.4-13.5-47.4-36.7V833.8z"/>
		</g>
	</g>
</g>
<g id="M6">
	<g id="Capa_28" class="st4">
	</g>
	<g id="Capa_14">
	</g>
	<g id="Capa_16">
	</g>
</g>
<g id="M7">
	<g id="Capa_17">
	</g>
	<g id="Capa_18">
	</g>
</g>
<g id="M8">
	<g id="Capa_20">
	</g>
	<g id="Capa_21">
	</g>
</g>
<g id="M9">
	<g id="Capa_23">
	</g>
	<g id="Capa_24">
	</g>
</g>
<g id="M10">
	<g id="Capa_30" class="st4">
	</g>
	<g id="Capa_26">
	</g>
	<g id="Capa_27">
	</g>
</g>
<g id="M11">
	<g id="Capa_32">
	</g>
	<g id="Capa_33">
	</g>
</g>
<g id="M12">
	<g id="Capa_35">
	</g>
	<g id="Capa_36">
	</g>
</g>
<g id="TIPOGRAFIA">
	<g id="Capa_37">
	</g>
	<g id="Capa_38">
	</g>
	<g id="Capa_39">
	</g>
	<g id="Capa_40">
	</g>
</g>
</svg>
